<svg width="241" height="241" viewBox="0 0 241 241" fill="none" xmlns="http://www.w3.org/2000/svg">
<path d="M47.1115 167.536L57.7465 166.153L61.7605 163.105L63.2164 165.048L59.2024 168.096L54.9653 177.992L53.2746 175.743L56.4677 168.679L56.4435 168.648L48.8039 169.798L47.1115 167.536ZM45.6049 151.056L38.4226 149.101L37.5934 147.023L50.872 141.597L51.7593 143.818L42.0475 147.78L48.8531 149.675L48.8822 149.746L45.2828 155.87L54.9946 151.908L55.8819 154.129L42.6032 159.555L41.7741 157.477L45.6049 151.056ZM48.4829 129.017L50.3063 138.917L36.2323 141.63L34.4089 131.73L36.6279 131.295L38.0076 138.794L41.6181 138.099L40.2996 130.941L42.5261 130.512L43.8446 137.67L47.6556 136.935L46.2759 129.436L48.4829 129.017ZM48.2466 126.863L33.9399 126.936L33.9543 122.066C33.9725 117.113 36.9203 114.359 41.1372 114.333C45.3541 114.306 48.2792 117.04 48.261 121.993L48.2466 126.863ZM36.2057 122.133L36.1978 124.476L45.9939 124.433L46.0018 122.09C46.0181 118.555 44.085 116.913 41.1254 116.929C38.1657 116.946 36.222 118.598 36.2057 122.133ZM49.1702 109.771L48.8227 112.191L34.6676 110.266L35.0151 107.845L49.1702 109.771ZM49.0681 108.455L36.7923 99.3465L37.4912 96.8331L52.7625 95.2122L52.043 97.783L49.1064 98.0497L47.3764 104.249L49.7567 105.971L49.0681 108.455ZM40.0394 98.9305L45.4696 102.884L46.7702 98.2462L40.0556 98.8942L40.0394 98.9305ZM59.6433 82.0196L55.2678 90.0092L42.7395 83.1992L43.9194 81.0487L54.4669 86.791L57.6684 80.9443L59.6433 82.0196ZM59.4195 82.3222L51.3948 69.2863L52.9724 67.2013L67.7178 71.324L66.1047 73.4547L63.2835 72.6247L59.4034 77.7709L60.9776 80.2465L59.4195 82.3222ZM54.5501 70.1077L58.1286 75.798L61.0346 71.9474L54.5798 70.0697L54.5501 70.1077ZM68.712 70.6557L59.2394 59.9895L63.5719 56.1137C66.0312 53.9088 68.2411 54.2009 69.6945 55.836C70.6972 56.9605 70.8688 58.3422 70.2526 59.5988C71.6207 59.0264 73.0869 59.2768 74.123 60.4519C75.7746 62.315 75.541 64.5428 73.2111 66.6284L68.712 70.6557ZM66.4439 64.4826L69.0347 67.3962L71.7113 65.006C72.842 63.9916 73.0253 62.9479 72.1648 61.9832C71.3511 61.0672 70.2512 61.078 69.1323 62.0772L66.4439 64.4826ZM62.5008 60.0373L64.9662 62.8164L67.5193 60.5379C68.5459 59.6258 68.8343 58.6028 67.9813 57.644C67.2311 56.802 66.2159 56.7198 65.0539 57.7588L62.5008 60.0373ZM83.0242 54.8541C81.2062 51.8826 75.8061 58.4492 72.8248 53.5794C71.6431 51.6424 72.2731 48.953 74.9929 47.2694C77.8648 45.4841 80.4521 46.3029 81.8954 48.5419L79.8511 49.8103C79.1012 48.626 77.7052 48.1612 76.138 49.1288C74.711 50.0101 74.2048 51.1568 74.861 52.2436C76.4998 54.9162 82.1115 48.5758 85.0929 53.4456C86.4506 55.6544 85.4035 58.2878 82.481 60.1069C79.2334 62.1252 76.7143 60.8457 75.4292 58.9014L77.4929 57.6237C78.3737 58.8734 79.7881 59.2057 81.4373 58.1797C83.0999 57.1519 83.6956 55.9526 83.0242 54.8541ZM111.385 34.8631L107.736 44.985L108.599 49.9276L106.195 50.3655L105.332 45.4229L98.4682 37.2437L101.246 36.7304L106.064 42.7273L106.105 42.7221L108.581 35.3798L111.385 34.8631ZM126.762 40.7877L131.789 35.2139L134.018 35.387L132.789 49.6837L130.4 49.4968L131.295 39.0499L126.499 44.3135L126.416 44.3103L122.604 38.3763L121.709 48.8232L119.32 48.6362L120.549 34.3395L122.779 34.5126L126.762 40.7877ZM145.072 53.1221L135.423 50.3802L139.435 36.5897L149.085 39.3316L148.455 41.5075L141.141 39.4249L140.106 42.9606L147.086 44.9421L146.456 47.118L139.476 45.1364L138.388 48.8637L145.702 50.9462L145.072 53.1221ZM147.082 53.8575L153.597 41.0404L157.913 43.2195C162.309 45.4363 163.405 49.3013 161.488 53.0664C159.572 56.8449 155.792 58.2399 151.404 56.029L147.082 53.8575ZM156.816 45.202L154.735 44.154L150.274 52.9213L152.355 53.9694C155.499 55.5523 157.849 54.5596 159.189 51.9094C160.549 49.2633 159.959 46.7849 156.816 45.202ZM161.897 62.2918L159.899 60.9045L168.122 49.1011L170.12 50.4884L161.897 62.2918ZM163.098 62.7883L176.838 55.838L178.756 57.578L173.206 71.9557L171.25 70.1728L172.359 67.4288L167.627 63.1393L165.007 64.509L163.098 62.7883ZM175.715 58.9261L169.704 62.0311L173.24 65.2413L175.746 58.9496L175.715 58.9261ZM181.838 83.9483L176.709 76.4984L188.513 68.2829L189.895 70.2902L179.954 77.2057L183.709 82.6543L181.838 83.9483ZM181.791 83.6052L197.099 82.4657L198.2 84.817L187.571 96.0042L186.45 93.6007L188.516 91.4805L185.813 85.6781L182.875 85.9313L181.791 83.6052ZM194.886 84.8992L188.161 85.4663L190.184 89.8084L194.898 84.9456L194.886 84.8992ZM187.782 97.0864L201.619 93.3555L203.079 98.9474C203.909 102.128 202.631 103.969 200.511 104.542C199.053 104.934 197.739 104.472 196.909 103.36C196.79 104.834 195.894 106.03 194.37 106.445C191.958 107.096 190.07 105.893 189.295 102.891L187.782 97.0864ZM200.09 96.2492L196.484 97.2177L197.343 100.518C197.692 101.842 198.461 102.552 199.706 102.214C200.8 101.917 201.338 101.04 200.954 99.5414L200.09 96.2492ZM194.318 97.8034L190.54 98.8214L191.438 102.274C191.817 103.732 192.671 104.362 193.917 104.024C195.103 103.701 195.601 102.719 195.224 101.275L194.318 97.8034ZM195.27 116.922C198.749 116.613 195.377 108.869 201.075 108.359C203.342 108.157 205.453 109.913 205.702 113.093C205.972 116.448 204.072 118.403 201.399 118.704L201.203 116.312C202.601 116.167 203.66 115.121 203.51 113.292C203.38 111.624 202.594 110.656 201.329 110.771C198.196 111.055 201.276 118.877 195.564 119.39C192.972 119.619 191.107 117.517 190.829 114.094C190.52 110.293 192.815 108.609 195.14 108.318L195.332 110.731C193.815 110.966 192.868 112.087 193.029 114.011C193.194 115.976 193.984 117.032 195.27 116.922ZM200.131 151.151L192.785 143.403L187.979 141.992L188.684 139.642L193.49 141.053L203.921 138.532L203.102 141.246L195.55 142.905L195.542 142.947L200.954 148.416L200.131 151.151ZM184.674 166.928L186.818 174.068L185.517 175.892L173.913 167.601L175.321 165.64L183.8 171.702L181.794 164.914L181.841 164.853L188.908 164.578L180.429 158.516L181.836 156.555L193.44 164.846L192.133 166.677L184.674 166.928ZM164.597 176.484L171.951 169.557L181.694 179.97L174.34 186.896L172.804 185.258L178.375 180.011L175.875 177.34L170.549 182.349L169.013 180.711L174.339 175.701L171.705 172.889L166.134 178.136L164.597 176.484ZM162.92 177.856L170.541 189.916L166.429 192.545C162.248 195.217 158.367 194.222 156.123 190.661C153.881 187.114 154.632 183.149 158.814 180.477L162.92 177.856ZM165.294 190.595L167.271 189.335L162.059 181.075L160.082 182.334C157.102 184.243 156.733 186.769 158.309 189.258C159.88 191.768 162.314 192.504 165.294 190.595ZM148.03 186.343L150.255 185.326L156.103 198.353L153.879 199.37L148.03 186.343ZM146.962 187.137L145.753 202.466L143.265 203.229L133.84 191.181L136.393 190.395L138.17 192.735L144.305 190.84L144.494 187.892L146.962 187.137ZM143.694 199.942L144.162 193.2L139.564 194.617L143.648 199.955L143.694 199.942ZM119.087 192.557L128.133 191.905L129.051 206.201L126.623 206.375L125.851 194.334L119.232 194.812L119.087 192.557ZM119.404 192.695L112.46 206.45L109.873 206.206L105.779 191.428L108.427 191.67L109.177 194.518L115.547 195.106L116.844 192.448L119.404 192.695ZM111.519 203.318L114.517 197.251L109.744 196.808L111.479 203.323L111.519 203.318ZM104.731 191.076L100.755 204.882L95.1992 203.314C92.0435 202.431 91.1173 200.399 91.7265 198.281C92.1478 196.823 93.224 195.925 94.6074 195.769C93.4062 194.93 92.8374 193.544 93.2792 192.029C93.97 189.62 95.9834 188.608 98.9694 189.445L104.731 191.076ZM99.0693 202.099L100.104 198.502L96.8341 197.579C95.5183 197.213 94.5077 197.514 94.1491 198.751C93.8342 199.839 94.3122 200.75 95.7918 201.17L99.0693 202.099ZM100.722 196.341L101.811 192.566L98.3785 191.602C96.9275 191.192 95.9449 191.612 95.5938 192.856C95.2498 194.043 95.8447 194.96 97.2747 195.365L100.722 196.341ZM83.8508 187.527C82.3103 190.668 90.7003 191.682 88.1631 196.848C87.1563 198.901 84.5577 199.822 81.7051 198.442C78.6854 196.98 78.0092 194.348 79.1343 191.91L81.2828 192.95C80.6757 194.226 81.0245 195.66 82.672 196.456C84.1751 197.187 85.4039 196.996 85.9715 195.848C87.3572 193.014 79.0547 191.702 81.5859 186.543C82.7357 184.198 85.5022 183.652 88.5806 185.147C91.9929 186.805 92.2406 189.629 91.2855 191.771L89.1219 190.72C89.7113 189.296 89.24 187.925 87.5113 187.078C85.7464 186.216 84.4227 186.358 83.8508 187.527ZM66.8814 181.559L68.9023 183.136L70.4923 181.097L68.4713 179.521L66.8814 181.559ZM92.5826 48.9735L94.9694 47.9967L94.0149 45.613L91.6281 46.5898L92.5826 48.9735ZM196.296 132.121L198.848 132.362L199.117 129.794L196.557 129.547L196.296 132.121Z" fill="#1600D5"/>
</svg>
